<?xml version="1.0" encoding="UTF-8"?>
<svg id="b" data-name="Layer 2" xmlns="http://www.w3.org/2000/svg" viewBox="0 0 155.257 160">
  <g id="c" data-name="Layer 1">
    <path d="M144.229,153.318c-.109.018-.161-.292-.24-.368l-.424-.412c-.345-.335-1.109-.979-1.127-1.431-.08-.032-.267-.125-.326-.191l-2.533-2.843-1.075-1.245-.569-.634-.598-.668-.944-1.025-.48-.543-.268-.309c-.252-.29-.445-.545-.721-.834-.121-.127-.228-.365-.28-.494-.112-.068-.341-.202-.43-.304l-.608-.694-.474-.544-.92-1.039-.597-.678-.584-.624-.468-.618-.39-.391c-.32-.321-.594-.654-.865-.967-.249-.287-.586-.579-.669-1.003l-.243.009c-.056.002-.087-.184-.107-.243l-.094-.275c-.019-.055-.189,0-.253,0-.221-.387-.545-.679-.839-1.009l-.848-.949-.724-.833-2.372-2.664c-.009-.054,0-.231,0-.282,0-.064-.179-.041-.316-.031l-.5-.65c-.019-.025.035-.188.007-.174s-.169.017-.189-.007l-.779-.937c-.037-.044-.035-.312-.091-.312l-.248.003-.587-.677-.792-.913-1.084-1.218-.601-.711c-.271-.32-.949-.789-.914-1.164.003-.03-.094,0-.17.011l-.192-.357c-.281-.12-.523-.511-.584-.769-.033-.068-.272-.166-.325-.225l-1.018-1.123c-.027-.03-.029-.202-.031-.245-.003-.054-.217-.016-.259-.065l-.969-1.104-1.452-1.632c-.202-.227-.159-.4-.493-.574-.292-.152-.558-.591-.776-.887-.03-.043-.03-.165-.069-.196s-.179-.086-.208-.128c-.55-.796-.279-.172-.397-.62-.011-.041-.111-.015-.232,0l-.153-.374c-.333-.227-.64-.499-.902-.795l.033-.301c-.485.056-.598-.403-.658-.697-.699-.392-1.798-1.935-1.899-2.026-.315-.286-.54-.517-.815-.828l-.517-.585c-.241-.273-.45-.581-.692-.828l-.561-.572c-.258-.264-.452-.571-.685-.862-.123-.153-.329-.31-.439-.49l-.233-.382c-.278.083-.314-.232-.447-.378l-.895-.977-.733-.811-.624-.731c-.207-.242-.424-.521-.626-.731-.23-.24-.346-.435-.53-.703-.159-.231-.626-.477-.827-.755l-.506-.699c-.04-.056-1.268-1.228-1.152-1.424-.237-.074-.418-.216-.583-.426-.483-.613-1.012-1.05-1.446-1.681-.002-.14.004-.191-.019-.243-.029-.065-.287-.106-.335-.159l-.733-.817-1.065-1.171c-.133-.146-.308-.377-.421-.506l-.689-.79c-.356-.408-.884-.934-1.137-1.395-.258-.224-.809-.601-.799-.967-.315-.042-.751-.536-.766-.9l-.364-.103c.01-.134.052-.342-.018-.365l-.311-.103c-.543-.861-.902-.693-1.132-1.438-.29-.214-.598-.472-.844-.757l-.794-.921-.844-.95-.411-.458c-.162-.18-.467-.469-.556-.674l-.239-.549c-.438.013-.531-.33-.741-.571-.208-.238-.594-.591-.654-.909-.019-.1-.302-.167-.366-.236-.207-.222-.6-.64-.804-.914-.178-.239-.288-.372-.47-.56l-.805-.832c-.091-.094-.194-.231-.216-.287.021-.16.024-.227-.004-.167-.398-.198-.596-.455-.855-.757l-.991-1.158-.406-.435-.569-.714c-.103-.129-.179-.526-.338-.561-.16-.035-.32-.064-.386-.132-.086-.089-.109-.323-.096-.481-.372-.114-.577-.378-.842-.673l-1.277-1.422-1.281-1.468c-.151-.173-.311-.396-.468-.566l-1.419-1.55-.979-1.07-.654-.723c-.144-.159-.263-.308-.254-.509.016-.353-.56.046-.726-.956l-.078-.469-.217-.1.003-57.105.151-.525-.026-4.108c0-.106-.336-1.115-.007-1.64.121-.193-.029-.533-.022-.71l.026-.606c.006-.027.022-.096.023-.096,0,0,.125.053.141.054.078.005.228.003.384-.004l-.255-.053c-.001.011-.044-.088-.076-.176l22.478.004h.613s3.845,0,3.845,0h.7s59.968-.003,59.968-.003c.203,0,.384.371.384.553v121.938c-.43-.063.076.671-.214.653-.119-.007-.378-.052-.44-.127l-.383-.464-1.054-1.182c-.699-.784-.547-.859-1.302-1.521-.249-.219-.534-.547-.77-.82l-.988-1.143-1.518-1.743-.758-.882c-.032-.037-.25-.067-.243-.115l.036-.254c-.553-.309-1.481-1.499-1.789-2.036-.104,0-.273-.032-.307-.093-.01-.019-.051-.115-.062-.141l-.049-.117-.168-.398c-.454.026-.582-.418-.724-.645-.158-.126-.529-.329-.549-.569l-.016-.201c-.003-.036-.099-.024-.178-.049-.178-.057-.364-.332-.517-.51l-.588-.685-.655-.82c.094.118-2.064-2.258-1.749-2.075l-.459-.267-.078-.131c-.089-.23-.196-.389-.379-.479-.008-.119.003-.17-.038-.162s-.197-.029-.222-.063l-.358-.495-.43-.556-.471-.442-4.018-4.572c-.25-.285-.624-.432-.576-.882l-.221.008c-.697-.705-.313-.914-.851-1.333-.249-.194-.277-.564-.398-.811-.124-.252-.221-.369-.221-.721l.015-71.815c-.168-.008-.431-.004-.71.014l-1.189.073c-.122.007-.38.188-.459.123-.097-.079-.259-.178-.297-.096-.112.242-.422-.059-.638-.059l-16.744-.01-13.903.005h-.187s-5.114-.007-5.114-.007l-1.91-.088c-.229.401-.156.806.051,1.119l-.119.06c-.014.007-.053.022-.052.03.002.025.009.118.009.116-.001-.002.08.006.101.007.013,0,.045.099.045.119l-.008,1.049c0,.06-.213.151-.173.191l.175.178c.016.016.007.155.007.211v14.134s-.005,1.036-.005,1.036c0,.053-.169.207-.166.267.017.364-.047,1.018.061,1.332.139.339.092.551-.01.95-.105.411-.042,1.238-.02,1.679.003.06.123.225.124.3.005.546-.003,1.271.038,1.83.033.451.154.971,0,1.354-.122.304-.205.609.084.876-.113.111-.059.076-.168.092l-.021.112.076.014c.016.003.048.006.05.014.005.027.021.146.024.146.003,0-.049.015-.104.031-.007.01-.028.039-.029.046l-.019.172c-.006.053.162.188.164.259.013.64-.009,1.571-.04,2.236l-.097,2.057c-.012.249-.219.46.016.709.1.106.012.472-.101.581.633.841.449.823,1.294,1.775l.888,1,.915.977.958,1.067.766.853.768.854.93,1.034.677.773.893.971,1.027,1.194,1.577,1.748.61.674.891.983.846.951c.185.208.374.423.517.622l-.007.21c-.002.057.157.075.256.114.241.095.421.382.603.583l1.013,1.123,2.375,2.651,1.412,1.576,1.58,1.746.609.673,3.646,4.099.945,1.034.835.939.765.867.68.761,1.063,1.151c.197.213.376.427.54.683.057.089.056.267.13.267.082,0,.236.039.272.08l1.097,1.279,3.599,4.001.96,1.08.925,1.039,1.014,1.116.354.415c.315.37.66.698.984,1.066l1.077,1.223.361.404.485.543.889.986.708.81.871.937.65.712,1.493,1.66c.494.549.176.645.369.645h.175c.014,0,.085.057.096.068l.091.09c.019.019.095.092.102.105l.259.534c.02.041.069.069.153.108.278.128.489.418.72.674l4.196,4.656.938,1.054,1.038,1.149.843.956,1.533,1.713,1.499,1.647.81.914.866.989.721.814.808.89.79.849.974,1.069.361.402.449.501c.679.758,1.823,2.559,1.403,3.6.553,1.367.072.8.083,1.101l.006.183.006.175.006.17.003.168-.017,2.657.132.018.095.034c-.03.137-.187.165-.184.215l.006.144c.002.049.004.097.004.096.053.05.135.159.135.213v.201s-.02,2.825-.02,2.825l-.082,1.949.011,1.967c.005.932-.169.233-.17.84l-.008,4.951.063,3.102.027,6.754c0,.085-.09.216-.104.241-.581-.218-1.066-.151-1.586.168l-1.102-.127c-.028-.003-.14.005-.189.006l-.187.006c-.525.017-.051-.258-.967-.092-.016.003-.121-.087-.144-.104-.355-.273-.066.13-.69-.252-.759-.464-.944-.613-1.491-1.184l-.54-.563-1.3-1.512-1.193-1.376c-.255-.294-.503-.562-.771-.839l-.377-.389c-.033-.034.013-.225.019-.289,0,0-.089.017-.186.033Z" fill="#ff4d00"/>
  </g>
</svg>
