<?xml version="1.0" encoding="UTF-8"?>
<svg id="b" data-name="Layer 2" xmlns="http://www.w3.org/2000/svg" viewBox="0 0 155.257 160">
  <g id="c" data-name="Layer 1">
    <path d="M144.229,153.318c-.109.018-.161-.292-.24-.368l-.424-.412c-.345-.335-1.109-.979-1.127-1.431-.08-.032-.267-.125-.326-.191l-2.533-2.843-1.075-1.245-.569-.634-.598-.668-.944-1.025-.48-.543-.268-.309c-.252-.29-.445-.545-.721-.834-.121-.127-.228-.365-.28-.494-.112-.068-.341-.202-.43-.304l-.608-.694-.474-.544-.92-1.039-.597-.678-.584-.624-.468-.618-.39-.391c-.32-.321-.594-.654-.865-.967-.249-.287-.586-.579-.669-1.003l-.243.009c-.056.002-.087-.184-.107-.243l-.094-.275c-.019-.055-.189,0-.253,0-.221-.387-.545-.679-.839-1.009l-.848-.949-.724-.833-2.372-2.664c-.009-.054,0-.231,0-.282,0-.064-.179-.041-.316-.031l-.5-.65c-.019-.025.035-.188.007-.174s-.169.017-.189-.007l-.779-.937c-.037-.044-.035-.312-.091-.312l-.248.003-.587-.677-.792-.913-1.084-1.218-.601-.711c-.271-.32-.949-.789-.914-1.164.003-.03-.094,0-.17.011l-.192-.357c-.281-.12-.523-.511-.584-.769-.033-.068-.272-.166-.325-.225l-1.018-1.123c-.027-.03-.029-.202-.031-.245-.003-.054-.217-.016-.259-.065l-.969-1.104-1.452-1.632c-.202-.227-.159-.4-.493-.574-.292-.152-.558-.591-.776-.887-.03-.043-.03-.165-.069-.196s-.179-.086-.208-.128c-.55-.796-.279-.172-.397-.62-.011-.041-.111-.015-.232,0l-.153-.374c-.333-.227-.64-.499-.902-.795l.033-.301c-.485.056-.598-.403-.658-.697-.699-.392-1.798-1.935-1.899-2.026-.315-.286-.54-.517-.815-.828l-.517-.585c-.241-.273-.45-.581-.692-.828l-.561-.572c-.258-.264-.452-.571-.685-.862-.123-.153-.329-.31-.439-.49l-.233-.382c-.278.083-.314-.232-.447-.378l-.895-.977-.733-.811-.624-.731c-.207-.242-.424-.521-.626-.731-.23-.24-.346-.435-.53-.703-.159-.231-.626-.477-.827-.755l-.506-.699c-.04-.056-1.268-1.228-1.152-1.424-.237-.074-.418-.216-.583-.426-.483-.613-1.012-1.05-1.446-1.681-.002-.14.004-.191-.019-.243-.029-.065-.287-.106-.335-.159l-.733-.817-1.065-1.171c-.133-.146-.308-.377-.421-.506l-.689-.79c-.356-.408-.884-.934-1.137-1.395-.258-.224-.809-.601-.799-.967-.315-.042-.751-.536-.766-.9l-.364-.103c.01-.134.052-.342-.018-.365l-.311-.103c-.543-.861-.902-.693-1.132-1.438-.29-.214-.598-.472-.844-.757l-.794-.921-.844-.95-.411-.458c-.162-.18-.467-.469-.556-.674l-.239-.549c-.438.013-.531-.33-.741-.571-.208-.238-.594-.591-.654-.909-.019-.1-.302-.167-.366-.236-.207-.222-.6-.64-.804-.914-.178-.239-.288-.372-.47-.56l-.805-.832c-.091-.094-.194-.231-.216-.287.021-.16.024-.227-.004-.167-.398-.198-.596-.455-.855-.757l-.991-1.158-.406-.435-.569-.714c-.103-.129-.179-.526-.338-.561-.16-.035-.32-.064-.386-.132-.086-.089-.109-.323-.096-.481-.372-.114-.577-.378-.842-.673l-1.277-1.422-1.281-1.468c-.151-.173-.311-.396-.468-.566l-1.419-1.55-.979-1.07-.654-.723c-.144-.159-.263-.308-.254-.509.016-.353-.56.046-.726-.956l-.078-.469-.217-.1.003-57.105.151-.525-.026-4.108c0-.106-.336-1.115-.007-1.64.121-.193-.029-.533-.022-.71l.026-.606c.006-.027.022-.096.023-.096,0,0,.125.053.141.054.078.005.228.003.384-.004l-.255-.053c-.001.011-.044-.088-.076-.176l22.478.004h.613s3.845,0,3.845,0h.7s59.968-.003,59.968-.003c.203,0,.384.371.384.553v121.938c-.43-.063.076.671-.214.653-.119-.007-.378-.052-.44-.127l-.383-.464-1.054-1.182c-.699-.784-.547-.859-1.302-1.521-.249-.219-.534-.547-.77-.82l-.988-1.143-1.518-1.743-.758-.882c-.032-.037-.25-.067-.243-.115l.036-.254c-.553-.309-1.481-1.499-1.789-2.036-.104,0-.273-.032-.307-.093-.01-.019-.051-.115-.062-.141l-.049-.117-.168-.398c-.454.026-.582-.418-.724-.645-.158-.126-.529-.329-.549-.569l-.016-.201c-.003-.036-.099-.024-.178-.049-.178-.057-.364-.332-.517-.51l-.588-.685-.655-.82c.094.118-2.064-2.258-1.749-2.075l-.459-.267-.078-.131c-.089-.23-.196-.389-.379-.479-.008-.119.003-.17-.038-.162s-.197-.029-.222-.063l-.358-.495-.43-.556-.471-.442-4.018-4.572c-.25-.285-.624-.432-.576-.882l-.221.008c-.697-.705-.313-.914-.851-1.333-.249-.194-.277-.564-.398-.811-.124-.252-.221-.369-.221-.721l.015-71.815c-.168-.008-.431-.004-.71.014l-1.189.073c-.122.007-.38.188-.459.123-.097-.079-.259-.178-.297-.096-.112.242-.422-.059-.638-.059l-16.744-.01-13.903.005h-.187s-5.114-.007-5.114-.007l-1.91-.088c-.229.401-.156.806.051,1.119l-.119.06c-.014.007-.053.022-.052.03.002.025.009.118.009.116-.001-.002.08.006.101.007.013,0,.045.099.045.119l-.008,1.049c0,.06-.213.151-.173.191l.175.178c.016.016.007.155.007.211v14.134s-.005,1.036-.005,1.036c0,.053-.169.207-.166.267.017.364-.047,1.018.061,1.332.139.339.092.551-.01.95-.105.411-.042,1.238-.02,1.679.003.06.123.225.124.3.005.546-.003,1.271.038,1.83.033.451.154.971,0,1.354-.122.304-.205.609.084.876-.113.111-.059.076-.168.092l-.021.112.076.014c.016.003.048.006.05.014.005.027.021.146.024.146.003,0-.049.015-.104.031-.007.01-.028.039-.029.046l-.019.172c-.006.053.162.188.164.259.013.64-.009,1.571-.04,2.236l-.097,2.057c-.012.249-.219.46.016.709.1.106.012.472-.101.581.633.841.449.823,1.294,1.775l.888,1,.915.977.958,1.067.766.853.768.854.93,1.034.677.773.893.971,1.027,1.194,1.577,1.748.61.674.891.983.846.951c.185.208.374.423.517.622l-.007.21c-.002.057.157.075.256.114.241.095.421.382.603.583l1.013,1.123,2.375,2.651,1.412,1.576,1.58,1.746.609.673,3.646,4.099.945,1.034.835.939.765.867.68.761,1.063,1.151c.197.213.376.427.54.683.057.089.056.267.13.267.082,0,.236.039.272.08l1.097,1.279,3.599,4.001.96,1.08.925,1.039,1.014,1.116.354.415c.315.37.66.698.984,1.066l1.077,1.223.361.404.485.543.889.986.708.81.871.937.65.712,1.493,1.66c.494.549.176.645.369.645h.175c.014,0,.085.057.096.068l.091.09c.019.019.095.092.102.105l.259.534c.02.041.069.069.153.108.278.128.489.418.72.674l4.196,4.656.938,1.054,1.038,1.149.843.956,1.533,1.713,1.499,1.647.81.914.866.989.721.814.808.89.79.849.974,1.069.361.402.449.501c.679.758,1.823,2.559,1.403,3.6.553,1.367.072.8.083,1.101l.006.183.006.175.006.17.003.168-.017,2.657.132.018.095.034c-.03.137-.187.165-.184.215l.006.144c.002.049.004.097.004.096.053.05.135.159.135.213v.201s-.02,2.825-.02,2.825l-.082,1.949.011,1.967c.005.932-.169.233-.17.84l-.008,4.951.063,3.102.027,6.754c0,.085-.09.216-.104.241-.581-.218-1.066-.151-1.586.168l-1.102-.127c-.028-.003-.14.005-.189.006l-.187.006c-.525.017-.051-.258-.967-.092-.016.003-.121-.087-.144-.104-.355-.273-.066.13-.69-.252-.759-.464-.944-.613-1.491-1.184l-.54-.563-1.3-1.512-1.193-1.376c-.255-.294-.503-.562-.771-.839l-.377-.389c-.033-.034.013-.225.019-.289,0,0-.089.017-.186.033Z" fill="currentColor"/>
    <path d="M87.938,115.902c0,.045.201.277.118.178l-.155.284c-.034.061.124.169.184.221l.008.929c0,.066-.098.208-.142.252-.025.359-.034.93.022,1.28.015.093.142.283.076.347l-.146.142c-.039.038.083.151.187.156l.003,29.817c-.092.013-.236.156-.193.188l.193.144c-.051,1.391.114,2.837-.084,4.14-.059.389-.077.762-.004,1.149.214,1.149.021,2.407.104,3.659l-.206.348.096.037c.021.008.086.035.087.034.003-.001-.092.11-.132.156l.06.537c-.244-.045-.405-.097-.619-.097l-20.349.005c-.297,0-.463.06-.731.127-.772.192-1.147-.11-1.719-.105.049-.071-.11-.399-.11-.555l.002-41.057.153-.286.011-5.524c-.033-.079-.153-.294-.162-.375-.188-1.571.369-.812.057-1.767-.093-.287-.05-.764-.041-1.081-.266-.132-.437-1.12-.433-1.48l-.449-.604-1.379-1.605-1.054-1.172-.843-.939-1.269-1.461-.52-.667-.431-.417-.912-1.063-.981-1.134-.873-1.008c-.469-.541-.59-.652-1.033-1.18-.027-.033-.028-.175-.024-.218s-.181.017-.205.017c-.005-.271-.219-.337-.36-.487l-.794-.844-.258-.33-.727-.821c-.158-.179-.308-.462-.407-.629-.468-.347-.97-.966-1.451-1.522l-1.458-1.684-.441-.493-1.115-1.205c-.122-.132-.155-.288-.146-.477-.131-.026-.386-.1-.47-.216-.111-.155-.145-.341-.17-.513l-.322-.101c-.151-.047.071-.391-.2-.426-.226-.029-.442-.378-.632-.586l-.724-.796-.886-1.003-.83-.961-.47-.548-.638-.743c-.115-.134-.365-.33-.414-.471-.035-.1-.038-.279-.092-.333-.062-.063-.242-.096-.324-.129-.154-.236-.433-.524-.601-.744-.537-.703-.429-.306-.967-1.059l-.011-.243c-.003-.056-.235-.019-.272-.061l-.661-.761-1.107-1.287-.76-.862-.641-.724-.482-.612-.25-.239c-.023-.022-.005-.151.002-.181.009-.041-.173.033-.188-.006l-.143-.375c-.336-.201-.645-.485-.877-.804l-.333-.459c-.014-.019.032-.157.03-.164-.001-.005-.116.01-.152.012-.135.007-.262-.258-.373-.381l-.923-1.033-.797-.91-1.223-1.414-.722-.825-.682-.754-.648-.715-.458-.573-.801-.912-.469-.535-.6-.689-.664-.79-.926-1.036-.558-.635c-.156-.178-.319-.496-.452-.633l-.605-.623-.875-.969-.777-.868c-.101-.113-.158-.212-.141-.389-.365-.258-.708-.613-1.035-.984l-.597-.676-.719-.833c-.167-.193-.354-.511-.513-.663-.248-.237-.459-.437-.687-.694l-.517-.584-.8-.902c-.187-.21-.351-.376-.446-.673-.038-.118-.271-.235-.35-.321l-.813-.887-.79-.909-1.768-2-.804-.91c-.137-.156-.152-.422-.422-.511-.193-.063-.243-.345-.251-.488-.208-.108-.428-.288-.624-.506l-1.006-1.112-1.429-1.663-.872-.996-.725-.812-.476-.547-.714-.821-.435-.501-.878-.988-2.249-2.711c-.12-.145-.172-.498-.177-.642l-.19-.01c-.06-.003-.031-.234-.012-.291l.064-.186c.005.004-.058-.048-.08-.065-.063-.022-.146-.055-.143-.082l.016-.155c.064-.004.159.005.14-.027l-.138-.235c-.346-.591-.201-1.328-.154-1.992.035-.489.02-.968.002-1.449l-.023-.612-.027-1.076-.007-1.314v-7.642s-.006-.549-.006-.549L.003.449.372.011c.245-.016.575-.02.801.03l.735.164c.404.09,1.011.43,1.301.746l.626.685,1.183,1.368.901,1.048.756.879.614.729c.152.18.398.351.425.593.012.107.011.14.031.117.019-.022.193.01.216.037l1.898,2.278c-.092.184-.008.166.154.117.625.855,1.028,1.062,1.657,1.957.127.181.176.281.373.42.149.105.284.44.419.576.369.373.695.725,1.017,1.136.11.14.371.319.376.467l.006.201c.001.044.192-.143.634.591.106.177.557.277.518.599-.011.092.218.178.274.243l.988,1.137c.249.286.54.567.755.86l.366.498c.385.524.716.732.856.918.217.289.508.638.738.875.042.103.119.325.163.418s.266.134.344.166c.145.22.356.423.525.618l.754.869,1.66,1.918c.129.15.273.348.383.489-.088.541-.036-.156.355.404.21.3.706.742,1.065,1.22.125.166.232.35.368.495l.597.635,2.714,3.182c.062.073.057.234.071.281.017.059.157.057.235.066l.652.715.215.498c.567.015.345.542.496.58l.258.066.525.584c.172.191.282.38.358.601.116.101.36.295.473.423l.527.599.594.686.685.79c.224.259.6.702.712.981.021.052.179.078.243.098l.586.689,1.204,1.417c.036.043-.029.271.017.282.045.011.163.03.204.051.115.103.315.334.431.476-.07.16-.076.191.03.051.208.089.781.863,1.083,1.213l1.026,1.188,1.361,1.549,1.168,1.393.541.642.776.861,1.494,1.745.506.589.636.739.333.418.69.774.473.547.667.782.643.726.506.599.626.737.665.777,2.378,2.777.694.798,1.23,1.43.697.837.515.58.637.754.746.825c.064.071.025.366.104.4l.335.141.43.497c.664.767,1.085,1.305,1.72,2.033l1.712,1.962c.074.085.201.318.264.418.252.206.516.455.734.715l.708.844c.244.291.943.889.853,1.22.306-.01,1.042.781,1.051,1.269,0,.033.095.004.188-.017l3.148,3.602c.113.129.201.258.174.42-.064.38.461-.004.649.63.023.076.216.21.269.272l.665.766.466.552.867,1.008,2.387,2.752.627.739.71.806c.132.15.249.41.302.576.283.138.51.343.724.606l.579.711.588.693.463.556.931,1.034c.066.074.143.204.197.338.035.087.241.189.309.267l1.818,2.106,1.487,1.749.663.784.851.945c.582.646.402.564.929,1.117,4.368,4.588,3.063,4.59,3.465,5.229.322.511-.215.828.185.897.016.343.028.834-.032,1.225-.015.095-.128.28-.128.396l.008,2.228c0,.076.096.231.145.3.001.007-.133.172-.135.228-.089,2.105.165.787.159,2.201l-.013,3.089-.19.129.017,1.038c0,.055.147.147.189.172l-.053.12c.015-.035-.129.077-.123.073-.001,0,.039.057.054.079l.098.144c.231.342-.353-.239-.137.914l-.006.574c.154.053.186.064.161.094l-.175.217.018,1.123Z" fill="currentColor"/>
    <path d="M24.416,111.918c.036.204.122.372-.005.595-.094.166.046.402.061.553.073.727.089,1.478-.017,2.165-.043.279-.017.479.006.736.113,1.263.054,2.555.04,3.777l-.168.131c-.044.034.089.168.183.192l-.023,15.076c0,.275-.087.549-.074.817l.036.745-.108.169c-.028.044.082.149.118.197.195.261-.064.72-.07,1.038-.042,2.018-.05,3.966.012,5.962.006.193.017.344.008.536-.055,1.172-.047,2.324,0,3.499l.023.56c.008.197.078.458-.006.706-.158.464.195.453-.037.789.151.156.145.545,0,.706.245.357-.141.264.049.923.117.405.111.921.015,1.358-.075.343-.027.668-.022,1.02.004.294-.006.61.018.877.129,1.449.06,3.073.057,4.552,0,.121-.103.32-.158.384s-.274-.058-.39-.058H.664s-.396.074-.396.074c.333-.301-.148-.501-.147-.706l.027-7.033c0,.106.182-3.139-.141-2.718l.193-.251.002-32.756c-.407-.298-.078-.559-.043-.885.077-.73.046-1.794.035-2.509-.001-.08-.225-.239-.187-.289l.195-.251-.004-32.594c0-.305-.089-.565-.068-.838.015-.206.056-.474.056-.689l.006-6.383-.085-.834v-18.925c.001-.285.161-.577.014-.825.015-.099.079-.339.079-.454l.002-2.973c0-.1.076-.255.151-.411-.037-.886.176-9.087-.116-9.188-.031-.011.076-.067.114-.078.35-.102.601.059.669.389.011.052.039.24.09.248l.225.035.593.817c.18.247.555.493.663.76.261.645-.038-.149.729.741l.565.656.81,1.008,1.617,1.902.257.564h.284c.058,0,.084.172.115.277.193.65.081-.05.483.758.026.052.192-.008.253.003l.372.488.647.754.521.609.495.57,1.12,1.333.726.841c.161.186.269.312.246.559l.364.139c.443.749.701.453.744,1.127.209.075.381.207.534.391l.76.908.818.976,1.204,1.436c.051.061.051.358.114.392.076.041.156.054.342.095.346.264.685,1.184.978,1.135l.408.668c.279.042.813.761.91,1.027.206.565-.074-.21.459.423l1.84,2.186.657.748.733.842.39.424c.372.405.857.984,1.129,1.428.024.04-.041.216,0,.223l.3.047-.127,1.146c.054.039.136.17.136.25l-.002,27.472-.026,5.607c0,.194-.278.476.015.63-.073.182-.143.414-.143.605l.002,7.181c0,.28.071.752.161.658l-.106.11c-.233.244.163.516.088.551l-.122.056c-.024.406-.049.895.027,1.32Z" fill="currentColor"/>
  </g>
</svg>
