<svg id="a" data-name="Layer 1" xmlns="http://www.w3.org/2000/svg" xmlns:xlink="http://www.w3.org/1999/xlink" viewBox="0 0 427.248 500.224">
  <defs>
    <clipPath id="b">
      <rect x=".211" y=".224" width="427" height="500" fill="none"/>
    </clipPath>
  </defs>
  <g clip-path="url(#b)">
    <g>
      <path d="M103.69,172.739l-.098,2.569-.031,50.966-.012,145.606-20.23.013-28.445.028.021-165.604.077-92.365c1.799,1.259,2.537,2.786,3.638,4.207l4.914,5.753,15.597,18.857,7.69,9.283c2.021,2.439,3.904,4.778,5.944,7.2l4.383,5.202c2.285,2.712,4.043,5.514,6.553,8.284Z" fill="currentColor"/>
      <path d="M51.992,418.156l.089-27.619,10.214.071,2.725,8.212,2.88,8.734c2.349,7.123,4.606,14.039,6.474,21.306.082.317.348.645.66.874l-.454-5.84c-.466-5.986-.935-11.805-.953-17.853l-.045-15.461,9.172-.068-.039,54.187-9.769.081-12.672-38.358c-.299,2.214.056,4.476.255,6.738.35,3.977.601,7.787.588,11.82l-.063,19.735-9.039.058-.024-26.617Z" fill="currentColor"/>
      <path d="M271.005,444.802l-1.959-4.587-5.577-13.323-.613-1.637-5.183.116c.125,1.573.24,2.751.241,4.156l.013,15.268-9.946-.049.035-42.462.095-11.631,16.011-.123c6.652-.051,12.16,2.739,14.358,9.259,2.461,7.628,1.03,18.635-6.253,23.405l8.5,19.786.76,1.788-10.482.035ZM269.678,411.669c.828-2.378.938-4.833.341-7.165-.808-2.319-2.657-3.953-5.165-3.951l-6.901.007-.02,14.823,6.988-.186c2.239-.06,3.804-1.527,4.758-3.527Z" fill="currentColor"/>
      <path d="M119.07,445.645c-9.616,1.37-15.157-5.835-17.456-13.94-2.447-8.623-2.296-19.483.015-28.085.957-3.562,2.535-6.661,5.012-9.378,4.812-5.277,13.16-6.428,18.668-1.908,3.411,2.799,5.507,6.47,6.691,10.731,2.077,7.476,2.357,15.162,1.25,22.845-1.188,8.242-4.527,18.361-14.181,19.736ZM123.17,427.383c1.345-6.645,1.327-13.298-.091-19.924-.737-3.444-2.663-7.717-6.656-7.35-3.36.309-4.795,3.609-5.557,6.677-1.388,5.595-1.488,11.192-.83,16.927.403,3.514,1.168,6.876,3.186,9.759.964,1.377,2.664,1.975,4.292,1.822,3.481-.327,5.042-4.877,5.656-7.912Z" fill="currentColor"/>
      <polygon points="323.75 421.775 308.207 421.775 308.251 434.584 327.307 434.657 327.325 444.723 298.351 444.784 298.38 390.644 326.682 390.583 326.682 400.8 308.25 400.835 308.253 411.766 323.784 411.818 323.75 421.775" fill="currentColor"/>
      <path d="M222.915,444.776l-2.551-13.066-12.433-.075-2.73,13.113-9.92-.005,7.688-31.668,5.522-22.461,11.521-.051,6.089,25.454,3.76,16.214,3.168,12.496-10.114.048ZM218.16,422.136l-1.498-7.798-2.55-14.341-1.96,11.376-2.095,10.758,8.103.006Z" fill="currentColor"/>
      <polygon points="184.331 390.573 181.158 403.383 175.928 425.164 171.353 444.746 160.244 444.814 157.431 433.195 151.179 407.358 147.354 390.614 157.53 390.609 163.053 417.496 165.774 432.716 168.657 417.901 174.424 390.6 184.331 390.573" fill="currentColor"/>
      <path d="M370.728,413.496l-4.679,11.958.011,19.228-9.724.088c-.088-6.446.209-12.501-.204-18.735-.172-2.59-1.808-4.764-2.552-7.224l-10.678-28.179,10.613.023,7.591,25.021,1.811-5.513,6.454-19.579,10.333-.033-8.975,22.946Z" fill="currentColor"/>
      <path d="M184.185,484.548l-5.064.153-6.531-15.166.601,15.025-4.83-.042.005-21.57,5.384-.027c.274.809.441,1.347.706,1.985l5.435,13.064-.433-15.007,4.643-.072.082,21.658Z" fill="currentColor"/>
      <path d="M272.887,484.421c-1.838.243-3.383.211-5.34.203l-3.918-7.837-2.701-.016.05,7.777-4.912-.082-.014-21.493c3.273-.05,6.51-.098,9.832.091,2.426.138,4.494,1.534,5.628,3.546,1.141,3.278.491,7.676-3.242,9.131l4.618,8.68ZM267.129,469.529c-.036-1.517-1.005-2.71-2.495-2.717l-3.689-.017-.055,5.965c1.349.017,2.745-.018,4.023-.226,1.516-.246,2.254-1.411,2.216-3.006Z" fill="currentColor"/>
      <path d="M237.759,463.019l4.863-.132-.09,13.589c-.015,2.324-.504,4.68-2.036,6.414-1.509,1.708-3.703,2.123-5.908,2.186-4.594.132-8.178-3.17-8.205-7.808l-.084-14.385,5.059-.013.21,14.582c.028,1.94,1.161,3.249,3.047,3.272,1.798.022,3.121-1.285,3.124-3.224l.021-14.481Z" fill="currentColor"/>
      <polygon points="153.371 475.444 145.313 475.432 145.19 480.446 155.031 480.495 155.181 484.473 140.299 484.54 140.353 462.927 154.777 463.018 154.822 466.722 145.24 466.806 145.211 471.28 153.274 471.335 153.371 475.444" fill="currentColor"/>
      <polygon points="298.737 475.391 290.594 475.457 290.634 480.491 300.406 480.568 300.403 484.49 285.766 484.533 285.76 462.879 300.06 463.026 300.044 466.706 290.687 466.819 290.625 471.291 298.591 471.374 298.737 475.391" fill="currentColor"/>
      <path d="M326.803,483.335c-4.363,2.815-10.441,1.872-14.101-1.656l3.274-3.441c2.019,2.553,8.237,3.372,8.694.845.579-3.2-4.994-2.567-8.794-5.859-1.531-1.327-2.226-3.135-2.015-5.144.18-1.715,1.265-3.289,2.972-4.355,3.484-2.174,7.941-1.656,11.175.931.182.146.504.516.616.69.329.508-1.548,1.835-2.217,3.075-1.78-1.518-4.287-2.388-6.655-1.709-.713.204-.993,1.118-.943,1.827.042.603.632,1.322,1.353,1.61l4.751,1.904c1.502.602,3.058,1.639,3.938,3.044,1.7,2.717.861,6.363-2.047,8.239Z" fill="currentColor"/>
      <polygon points="127.6 462.954 124.607 472.845 121.158 484.537 115.311 484.564 113.873 479.764 108.677 463.003 113.95 462.849 118.334 479.882 122.756 462.885 127.6 462.954" fill="currentColor"/>
      <path d="M207.834,484.559l-4.864.026-.021-17.771-6.461.012c-.053-1.344-.035-2.369.065-3.8l17.717-.037.106,3.716-6.557.058.015,17.798Z" fill="currentColor"/>
      <path d="M269.678,411.669c-.954,2-2.519,3.468-4.758,3.527l-6.988.186.02-14.823,6.901-.007c2.508-.002,4.357,1.632,5.165,3.951.598,2.333.487,4.787-.341,7.165Z"/>
      <path d="M123.17,427.383c-.614,3.035-2.176,7.585-5.656,7.912-1.628.153-3.328-.445-4.292-1.822-2.018-2.883-2.782-6.245-3.186-9.759-.658-5.734-.558-11.331.83-16.927.761-3.068,2.196-6.368,5.557-6.677,3.993-.368,5.919,3.906,6.656,7.35,1.419,6.626,1.436,13.279.091,19.924Z"/>
      <polygon points="218.16 422.136 210.057 422.13 212.152 411.373 214.112 399.997 216.662 414.338 218.16 422.136"/>
      <path d="M267.129,469.529c.038,1.595-.7,2.76-2.216,3.006-1.278.207-2.674.242-4.023.226l.055-5.965,3.689.017c1.49.007,2.459,1.2,2.495,2.717Z"/>
      <path d="M0,500.224V0h427.248v500.224H0ZM231.568,234.582l-12.784-15.212-6.553-7.608-12.166-14.601-6.932-8.482-6.984-8.423-6.101-7.289-7.983-9.671-12.224-14.838-6.836-8.294-6.811-8.349-5.517-6.589-6.469-7.723-16.722-20.076-4.061-5.104-8.431-10.247-5.1-6.263-26.802-32.507-6.984-8.439-4.013-4.788c-1.297-1.547-2.866-2.521-4.69-3.422-.811-.4-3.377-2.314-2.526-.87l-.003,19.186.012,49.324c0,1.999.667,3.321,1.799,4.841,1.727,2.318,3.454,4.537,5.327,6.765l5.206,6.194,12.346,14.905,12.558,15.204,8.371,10.089,17.317,20.75,10.696,12.853,17.224,20.615,15.44,18.402,10.535,12.71,12.899,15.358c1.138,1.355,2.692,2.744,3.009,4.518.443,2.481.275,4.822.335,7.443l.062,83.486.025,23.564,48.614-.036.032-128.467c0-3.336-2.963-6.349-5.116-8.91ZM360.339,299.08l-14.092-16.563-7.806-9.129-6.106-7.043-10.768-12.685-6.984-8.202-6.408-7.457-8.086-9.345-6.264-7.396-19.839-23.296-7.645-9.023c-2.078-2.453-4.215-4.687-6.169-7.239-1.147-1.498-2.395-2.765-3.634-4.199l-9.232-10.677-9.017-10.435c-1.06-1.227-1.548-2.405-1.552-4.182l-.107-57.998.01-17.579c0-.421,77.307-.428,82.126-.283l5.8.174-.027,60.348.139,103.705c.002,1.121.939,2.351,1.574,3.083l10.319,11.906,6.431,7.716,7.765,9.178,15.036,17.747,7.123,8.747c.07.086.429.319.442.224l.074-.521.1-26.505-.014-245.225-21.878-.049-28.206.049-50.216-.074-39.407.089-45.781.005-.036,29.882.028,48.966-.013,38.971.022,15.824c.004,2.564.057,4.946.55,7.47.106.543.907,1.423,1.301,1.896l10.442,12.526,14.401,17.407,8.677,10.274,12.871,15.366,11.717,14.085,8.915,10.509,5.086,6.061,10.984,12.772,25.225,29.726,5.076,5.86,6.71,7.888,6.029,7.1,11.423,13.585,15.641,18.427,5.424,6.22,7.687,8.962,4.922,5.715c1.083,1.257,2.773,2.513,4.513,2.542l7.521.124.324-10.996.103-18.682.023-27.095c.001-1.596-.411-3.052-1.214-4.386-1.303-2.164-2.705-4.095-4.345-5.986l-7.707-8.881ZM103.69,172.739c-2.51-2.77-4.268-5.572-6.553-8.284l-4.383-5.202c-2.04-2.421-3.924-4.76-5.944-7.2l-7.69-9.283-15.597-18.857-4.914-5.753c-1.1-1.421-1.839-2.948-3.638-4.207l-.077,92.365-.021,165.604,28.445-.028,20.23-.013.012-145.606.031-50.966.098-2.569ZM119.07,445.645c9.654-1.375,12.993-11.494,14.181-19.736,1.107-7.683.827-15.368-1.25-22.845-1.184-4.261-3.281-7.932-6.691-10.731-5.508-4.52-13.857-3.369-18.668,1.908-2.477,2.717-4.055,5.815-5.012,9.378-2.312,8.602-2.462,19.462-.015,28.085,2.3,8.106,7.84,15.31,17.456,13.94ZM51.992,418.156l.024,26.617,9.039-.058.063-19.735c.013-4.033-.239-7.843-.588-11.82-.199-2.262-.554-4.524-.255-6.738l12.672,38.358,9.769-.081.039-54.187-9.172.068.045,15.461c.018,6.048.487,11.867.953,17.853l.454,5.84c-.313-.229-.579-.557-.66-.874-1.868-7.267-4.126-14.183-6.474-21.306l-2.88-8.734-2.725-8.212-10.214-.071-.089,27.619ZM184.331,390.573l-9.907.027-5.767,27.301-2.883,14.815-2.721-15.22-5.523-26.887-10.175.004,3.825,16.744,6.251,25.838,2.813,11.619,11.109-.069,4.575-19.582,5.23-21.78,3.173-12.81ZM222.915,444.776l10.114-.048-3.168-12.496-3.76-16.214-6.089-25.454-11.521.051-5.522,22.461-7.688,31.668,9.92.005,2.73-13.113,12.433.075,2.551,13.066ZM271.005,444.802l10.482-.035-.76-1.788-8.5-19.786c7.283-4.77,8.714-15.777,6.253-23.405-2.199-6.52-7.706-9.31-14.358-9.259l-16.011.123-.095,11.631-.035,42.462,9.946.049-.013-15.268c-.001-1.405-.116-2.582-.241-4.156l5.183-.116.613,1.637,5.577,13.323,1.959,4.587ZM323.75,421.775l.034-9.957-15.531-.052-.003-10.931,18.433-.036v-10.217s-28.303.062-28.303.062l-.028,54.14,28.973-.061-.017-10.066-19.057-.073-.043-12.809h15.543ZM370.728,413.496l8.975-22.946-10.333.033-6.454,19.579-1.811,5.513-7.591-25.021-10.613-.023,10.678,28.179c.744,2.46,2.38,4.634,2.552,7.224.414,6.235.116,12.289.204,18.735l9.724-.088-.011-19.228,4.679-11.958ZM326.803,483.335c2.908-1.876,3.746-5.522,2.047-8.239-.879-1.406-2.435-2.442-3.938-3.044l-4.751-1.904c-.721-.289-1.31-1.008-1.353-1.61-.05-.708.231-1.622.943-1.827,2.368-.679,4.875.191,6.655,1.709.669-1.239,2.547-2.566,2.217-3.075-.113-.174-.434-.544-.616-.69-3.233-2.587-7.691-3.105-11.175-.931-1.707,1.065-2.792,2.64-2.972,4.355-.211,2.008.483,3.817,2.015,5.144,3.8,3.292,9.373,2.659,8.794,5.859-.457,2.527-6.675,1.708-8.694-.845l-3.274,3.441c3.66,3.528,9.738,4.471,14.101,1.656ZM127.6,462.954l-4.843-.069-4.423,16.996-4.384-17.032-5.273.154,5.197,16.76,1.438,4.801,5.846-.028,3.449-11.692,2.993-9.89ZM153.371,475.444l-.097-4.109-8.063-.056.029-4.474,9.582-.083-.046-3.704-14.424-.092-.053,21.614,14.881-.068-.15-3.978-9.841-.049.123-5.015,8.058.012ZM184.185,484.548l-.082-21.658-4.643.072.433,15.007-5.435-13.064c-.265-.637-.432-1.175-.706-1.985l-5.384.027-.005,21.57,4.83.042-.601-15.025,6.531,15.166,5.064-.153ZM237.759,463.019l-.021,14.481c-.003,1.939-1.325,3.246-3.124,3.224-1.886-.023-3.019-1.332-3.047-3.272l-.21-14.582-5.059.013.084,14.385c.027,4.638,3.611,7.94,8.205,7.808,2.205-.063,4.399-.478,5.908-2.186,1.532-1.734,2.02-4.09,2.036-6.414l.09-13.589-4.863.132ZM272.887,484.421l-4.618-8.68c3.733-1.456,4.383-5.853,3.242-9.131-1.134-2.012-3.203-3.408-5.628-3.546-3.322-.188-6.559-.141-9.832-.091l.014,21.493,4.912.082-.05-7.777,2.701.016,3.918,7.837c1.957.008,3.503.04,5.34-.203ZM298.737,475.391l-.145-4.017-7.966-.084.062-4.471,9.357-.113.016-3.68-14.3-.148.006,21.654,14.637-.043.003-3.921-9.772-.077-.041-5.034,8.143-.066ZM207.834,484.559l-.015-17.798,6.557-.058-.106-3.716-17.717.037c-.1,1.431-.119,2.456-.065,3.8l6.461-.012.021,17.771,4.864-.026Z"/>
      <g>
        <path d="M360.339,299.08l7.707,8.881c1.641,1.891,3.042,3.822,4.345,5.986.803,1.334,1.216,2.791,1.214,4.386l-.023,27.095-.103,18.682-.324,10.996-7.521-.124c-1.74-.029-3.431-1.285-4.513-2.542l-4.922-5.715-7.687-8.962-5.424-6.22-15.641-18.427-11.423-13.585-6.029-7.1-6.71-7.888-5.076-5.86-25.225-29.726-10.984-12.772-5.086-6.061-8.915-10.509-11.717-14.085-12.871-15.366-8.677-10.274-14.401-17.407-10.442-12.526c-.395-.473-1.195-1.353-1.301-1.896-.493-2.524-.546-4.906-.55-7.47l-.022-15.824.013-38.971-.028-48.966.036-29.882,45.781-.005,39.407-.089,50.216.074,28.206-.049,21.878.049.014,245.225-.1,26.505-.074.521c-.013.095-.372-.138-.442-.224l-7.123-8.747-15.036-17.747-7.765-9.178-6.431-7.716-10.319-11.906c-.635-.733-1.572-1.962-1.574-3.083l-.139-103.705.027-60.348-5.8-.174c-4.818-.145-82.125-.139-82.126.283l-.01,17.579.107,57.998c.003,1.777.492,2.955,1.552,4.182l9.017,10.435,9.232,10.677c1.239,1.434,2.488,2.701,3.634,4.199,1.954,2.552,4.091,4.786,6.169,7.239l7.645,9.023,19.839,23.296,6.264,7.396,8.086,9.345,6.408,7.457,6.984,8.202,10.768,12.685,6.106,7.043,7.806,9.129,14.092,16.563Z" fill="currentColor"/>
        <path d="M231.568,234.582c2.152,2.561,5.116,5.575,5.116,8.91l-.032,128.467-48.614.036-.025-23.564-.062-83.486c-.061-2.621.108-4.963-.335-7.443-.317-1.774-1.871-3.163-3.009-4.518l-12.899-15.358-10.535-12.71-15.44-18.402-17.224-20.615-10.696-12.853-17.317-20.75-8.371-10.089-12.558-15.204-12.346-14.905-5.206-6.194c-1.873-2.228-3.599-4.447-5.327-6.765-1.132-1.52-1.799-2.842-1.799-4.841l-.012-49.324.003-19.186c-.851-1.444,1.715.469,2.526.87,1.824.901,3.393,1.875,4.69,3.422l4.013,4.788,6.984,8.439,26.802,32.507,5.1,6.263,8.431,10.247,4.061,5.104,16.722,20.076,6.469,7.723,5.517,6.589,6.811,8.349,6.836,8.294,12.224,14.838,7.983,9.671,6.101,7.289,6.984,8.423,6.932,8.482,12.166,14.601,6.553,7.608,12.784,15.212Z" fill="currentColor"/>
      </g>
    </g>
  </g>
</svg>
